<svg width="64" height="53" viewBox="0 0 64 53" fill="none" xmlns="http://www.w3.org/2000/svg">
<mask id="path-1-inside-1_1_11" fill="white">
<path fill-rule="evenodd" clip-rule="evenodd" d="M36 4.5C36 2.01472 33.9853 0 31.5 0H9C4.02944 0 0 4.02944 0 9V18V43C0 48.5228 4.47715 53 10 53H54C59.5228 53 64 48.5228 64 43V19C64 13.4772 59.5228 9 54 9H40.5C38.0147 9 36 6.98528 36 4.5Z"/>
</mask>
<path d="M9 5H31.5V-5H9V5ZM5 18V9H-5V18H5ZM5 43V18H-5V43H5ZM54 48H10V58H54V48ZM59 19V43H69V19H59ZM40.5 14H54V4H40.5V14ZM40.5 4C40.7761 4 41 4.22386 41 4.5H31C31 9.74671 35.2533 14 40.5 14V4ZM-5 43C-5 51.2843 1.71573 58 10 58V48C7.23858 48 5 45.7614 5 43H-5ZM69 19C69 10.7157 62.2843 4 54 4V14C56.7614 14 59 16.2386 59 19H69ZM31.5 5C31.2239 5 31 4.77614 31 4.5H41C41 -0.746705 36.7467 -5 31.5 -5V5ZM54 58C62.2843 58 69 51.2843 69 43H59C59 45.7614 56.7614 48 54 48V58ZM9 -5C1.26801 -5 -5 1.26801 -5 9H5C5 6.79086 6.79086 5 9 5V-5Z" fill="black" mask="url(#path-1-inside-1_1_11)"/>
</svg>
